<?xml version="1.0" encoding="utf-8"?>
<!-- Generator: Adobe Illustrator 24.0.0, SVG Export Plug-In . SVG Version: 6.00 Build 0)  -->
<svg version="1.1" id="Layer_1" xmlns="http://www.w3.org/2000/svg" xmlns:xlink="http://www.w3.org/1999/xlink" x="0px" y="0px"
	 viewBox="0 0 25 25" style="enable-background:new 0 0 25 25;" xml:space="preserve">
<style type="text/css">
	.st0{fill:#243746;}
</style>
<g>
	<g>
		<path class="st0" d="M12.5,24.8c-6.8,0-12.3-5.5-12.3-12.3c0-6.8,5.5-12.3,12.3-12.3c6.8,0,12.3,5.5,12.3,12.3
			C24.8,19.3,19.3,24.8,12.5,24.8z M12.5,2.1C6.7,2.1,2.1,6.7,2.1,12.5s4.7,10.4,10.4,10.4s10.4-4.7,10.4-10.4S18.3,2.1,12.5,2.1z"
			/>
	</g>
	<g>
		<path class="st0" d="M17.2,17.9c-0.2,0-0.5-0.1-0.7-0.3L7.6,8.7c-0.4-0.4-0.4-1,0-1.3C8,7,8.6,7,9,7.4l8.9,8.9
			c0.4,0.4,0.4,1,0,1.3C17.7,17.8,17.5,17.9,17.2,17.9z"/>
	</g>
	<g>
		<path class="st0" d="M8.3,17.9c-0.2,0-0.5-0.1-0.7-0.3c-0.4-0.4-0.4-1,0-1.3l8.9-8.9c0.4-0.4,1-0.4,1.3,0c0.4,0.4,0.4,1,0,1.3
			L9,17.6C8.8,17.8,8.6,17.9,8.3,17.9z"/>
	</g>
</g>
</svg>
