<?xml version="1.0" encoding="utf-8"?>
<!-- Generator: Adobe Illustrator 19.0.0, SVG Export Plug-In . SVG Version: 6.00 Build 0)  -->
<svg version="1.1" id="Layer_1" xmlns="http://www.w3.org/2000/svg" xmlns:xlink="http://www.w3.org/1999/xlink" x="0px" y="0px"
	 viewBox="-404 282.3 32 32" style="enable-background:new -404 282.3 32 32;" xml:space="preserve">
<path d="M-379.1,292.3c0-4.9-4-8.9-8.9-8.9c-4.9,0-8.9,4-8.9,8.9c0,0,0,0.1,0,0.1l0,0c0,6.6,8.9,21,8.9,21h0c0,0,8.9-14.4,8.9-21
	l0,0C-379.1,292.3-379.1,292.3-379.1,292.3z M-385.7,294.9c-1.2,1.2-3.3,1.2-4.5,0c-1.2-1.2-1.2-3.3,0-4.5c1.2-1.2,3.3-1.2,4.5,0
	C-384.5,291.6-384.5,293.6-385.7,294.9z"/>
</svg>
