<?xml version="1.0" encoding="utf-8"?>
<!-- Generator: Adobe Illustrator 21.1.0, SVG Export Plug-In . SVG Version: 6.00 Build 0)  -->
<svg version="1.1" id="Layer_1" xmlns="http://www.w3.org/2000/svg" xmlns:xlink="http://www.w3.org/1999/xlink" x="0px" y="0px"
	 viewBox="0 0 85.925 85.751" enable-background="new 0 0 85.925 85.751" xml:space="preserve">
<g>
	<g>
		<path fill="#243746" d="M43.017,4.782c21.007,0,38.098,17.091,38.098,38.098S64.023,80.978,43.017,80.978
			S4.918,63.888,4.918,42.88S22.01,4.782,43.017,4.782 M43.017,0.36c-23.483,0-42.52,19.037-42.52,42.52S19.534,85.4,43.017,85.4
			s42.52-19.037,42.52-42.52S66.5,0.36,43.017,0.36L43.017,0.36z"/>
	</g>
	<g>
		<path fill="#243746" d="M23.95,63.169c-0.571,0-1.143-0.223-1.574-0.661c-0.857-0.87-0.847-2.269,0.023-3.126l38.03-37.462
			c0.87-0.857,2.269-0.847,3.126,0.023s0.847,2.269-0.023,3.126l-38.03,37.462C25.069,62.956,24.511,63.169,23.95,63.169z"/>
	</g>
	<g>
		<path fill="#243746" d="M61.695,63.454c-0.571,0-1.143-0.223-1.574-0.661L22.658,24.76c-0.857-0.87-0.847-2.269,0.023-3.126
			c0.87-0.857,2.269-0.847,3.126,0.023l37.462,38.034c0.857,0.87,0.847,2.269-0.023,3.126
			C62.814,63.242,62.256,63.454,61.695,63.454z"/>
	</g>
</g>
</svg>
