<?xml version="1.0" encoding="utf-8"?>
<!-- Generator: Adobe Illustrator 19.2.0, SVG Export Plug-In . SVG Version: 6.00 Build 0)  -->
<svg version="1.1" id="Layer_1" xmlns="http://www.w3.org/2000/svg" xmlns:xlink="http://www.w3.org/1999/xlink" x="0px" y="0px"
	 viewBox="0 0 30.2 29.5" style="enable-background:new 0 0 30.2 29.5;" xml:space="preserve">
<g>
	<path d="M24.7,2v1.4c0.5,0.5,0.9,1.2,0.9,1.9c0,1.4-1.2,2.6-2.6,2.6s-2.6-1.2-2.6-2.6c0-0.8,0.3-1.5,0.9-1.9V2H9.2v1.4
		c0.5,0.5,0.9,1.2,0.9,1.9c0,1.4-1.2,2.6-2.6,2.6S4.9,6.7,4.9,5.3c0-0.8,0.3-1.5,0.9-1.9V2H0v27.5h30.2V2H24.7z M27.4,26.8H2.7V9.6
		h24.7V26.8z"/>
	<path d="M6.2,0v5.5c0,0.7,0.6,1.3,1.3,1.3c0.7,0,1.3-0.6,1.3-1.3V0H6.2z"/>
	<path d="M21.7,0v5.5c0,0.7,0.6,1.3,1.3,1.3c0.7,0,1.3-0.6,1.3-1.3V0H21.7z"/>
</g>
</svg>
