<?xml version="1.0" encoding="utf-8"?>
<!-- Generator: Adobe Illustrator 24.0.0, SVG Export Plug-In . SVG Version: 6.00 Build 0)  -->
<svg version="1.1" id="Layer_1" xmlns="http://www.w3.org/2000/svg" xmlns:xlink="http://www.w3.org/1999/xlink" x="0px" y="0px"
	 viewBox="0 0 21.2 21.2" style="enable-background:new 0 0 21.2 21.2;" xml:space="preserve">
<style type="text/css">
	.st1{fill:#243746;}
</style>
<g>
	<path class="st1" d="M10.6,21.1c-5.8,0-10.5-4.7-10.5-10.5S4.9,0.2,10.6,0.2s10.5,4.7,10.5,10.5S16.4,21.1,10.6,21.1z M10.6,1.2
		c-5.2,0-9.5,4.3-9.5,9.5s4.3,9.5,9.5,9.5s9.5-4.3,9.5-9.5C20.2,5.4,15.9,1.2,10.6,1.2z"/>
</g>
<g>
	<path class="st1" d="M5.1,9.1c0-0.1,0-0.3,0.1-0.4c0.2-0.2,0.5-0.2,0.7,0l4.6,4.6l4.8-4.8c0.2-0.2,0.5-0.2,0.7,0
		c0.2,0.2,0.2,0.5,0,0.7l-5.1,5.1c-0.2,0.2-0.5,0.2-0.7,0l-5-4.9C5.1,9.3,5.1,9.2,5.1,9.1z"/>
</g>
</svg>
