<?xml version="1.0" encoding="utf-8"?>
<!-- Generator: Adobe Illustrator 24.0.0, SVG Export Plug-In . SVG Version: 6.00 Build 0)  -->
<svg version="1.1" id="Layer_1" xmlns="http://www.w3.org/2000/svg" xmlns:xlink="http://www.w3.org/1999/xlink" x="0px" y="0px"
	 viewBox="0 0 21 21" style="enable-background:new 0 0 21 21;" xml:space="preserve">
<style type="text/css">
	.st0{fill:#243746;}
</style>
<g>
	<g>
		<path class="st0" d="M14.4,10.8c0,0.1,0,0.3-0.1,0.4L9.5,16c-0.2,0.2-0.5,0.2-0.7,0c-0.2-0.2-0.2-0.5,0-0.7l4.5-4.5L8.6,6.1
			c-0.2-0.2-0.2-0.5,0-0.7c0.2-0.2,0.5-0.2,0.7,0l5,5.1C14.4,10.5,14.4,10.6,14.4,10.8z"/>
	</g>
	<g>
		<path class="st0" d="M21.3,10.7c0,5.8-4.8,10.6-10.6,10.6c-5.8,0-10.6-4.8-10.6-10.6c0-5.9,4.8-10.6,10.6-10.6
			C16.5,0.1,21.3,4.8,21.3,10.7z M1.1,10.7c0,5.3,4.3,9.6,9.6,9.6s9.6-4.3,9.6-9.6S16,1.1,10.7,1.1S1.1,5.4,1.1,10.7z"/>
	</g>
</g>
</svg>
