<?xml version="1.0" encoding="utf-8"?>
<!-- Generator: Adobe Illustrator 19.0.0, SVG Export Plug-In . SVG Version: 6.00 Build 0)  -->
<svg version="1.1" id="Layer_1" xmlns="http://www.w3.org/2000/svg" xmlns:xlink="http://www.w3.org/1999/xlink" x="0px" y="0px"
	 viewBox="-404 282.3 32 32" style="enable-background:new -404 282.3 32 32;" xml:space="preserve">
<path d="M-403.8,283.8v28.9h31.7v-28.9H-403.8z M-377.9,285.2h4.2v3.9h-4.2V285.2z M-375,290.6v15.3h-11.3v-15.3H-375z M-384,285.2
	h4.2v3.9h-4.2V285.2z M-390.2,285.2h4.2v3.9h-4.2V285.2z M-389.7,290.6v15.3H-401v-15.3H-389.7z M-396.2,285.2h4.2v3.9h-4.2V285.2z
	 M-402.3,285.2h4.2v3.9h-4.2V285.2z M-398.1,311.3h-4.2v-3.9h4.2V311.3z M-392,311.3h-4.2v-3.9h4.2V311.3z M-385.9,311.3h-4.2v-3.9
	h4.2V311.3z M-379.8,311.3h-4.2v-3.9h4.2V311.3z M-373.7,311.3h-4.2v-3.9h4.2V311.3z"/>
</svg>
