<?xml version="1.0" encoding="utf-8"?>
<!-- Generator: Adobe Illustrator 21.1.0, SVG Export Plug-In . SVG Version: 6.00 Build 0)  -->
<svg version="1.1" id="Layer_1" xmlns="http://www.w3.org/2000/svg" xmlns:xlink="http://www.w3.org/1999/xlink" x="0px" y="0px"
	 viewBox="0 0 125 125" enable-background="new 0 0 125 125" xml:space="preserve">
<g>
	<path fill="#FFFFFF" d="M64.188,118.213c-2.964,0-14.494-14.678-21.129-24.782C34.777,80.821,24.907,62.45,24.907,46.54
		c0-30.253,27.059-40.04,40.163-40.04c16.192,0,40.15,12.726,40.15,40.04c0,13.703-10.349,32.195-19.03,45.295
		C79.915,101.302,67.196,118.213,64.188,118.213z M63.76,115.296L63.76,115.296L63.76,115.296z M64.577,115.283L64.577,115.283
		L64.577,115.283z M65.069,9.5c-12.125,0-37.163,9.054-37.163,37.04c0,26.767,30.777,64.509,36.244,68.477
		C69,110.976,102.22,69.912,102.22,46.54C102.22,21.272,80.052,9.5,65.069,9.5z"/>
</g>
<g>
	<path fill="#FFFFFF" d="M65.063,58c-8.547,0-15.5-6.953-15.5-15.5S56.517,27,65.063,27s15.5,6.953,15.5,15.5S73.61,58,65.063,58z
		 M65.063,30c-6.893,0-12.5,5.607-12.5,12.5S58.171,55,65.063,55s12.5-5.607,12.5-12.5S71.956,30,65.063,30z"/>
</g>
</svg>
