<?xml version="1.0" encoding="utf-8"?>
<!-- Generator: Adobe Illustrator 19.0.0, SVG Export Plug-In . SVG Version: 6.00 Build 0)  -->
<svg version="1.1" id="Layer_1" xmlns="http://www.w3.org/2000/svg" xmlns:xlink="http://www.w3.org/1999/xlink" x="0px" y="0px"
	 viewBox="-404 282.3 32 32" style="enable-background:new -404 282.3 32 32;" xml:space="preserve">
<path d="M-404,286.7v23.4h32v-23.4H-404z M-373.1,291.9h-9.5v-4.1h9.5V291.9z M-392.5,303.1L-392.5,303.1l8.7,0v0H-392.5z
	 M-383.8,304.3v4.6h-8.7v-4.6H-383.8z M-383.8,293v4.5h-8.7V293H-383.8z M-393.6,297.5h-9.2V293h9.2V297.5z M-393.6,298.7v4.5h-9.2
	v-4.5H-393.6z M-382.7,303.1h9.5v0L-382.7,303.1L-382.7,303.1z M-382.7,297.5V293h9.5v4.5H-382.7z M-393.6,287.8v4.1h-9.2v-4.1
	H-393.6z M-402.9,304.3h9.2v4.6h-9.2V304.3z M-382.7,308.9v-4.6h9.5v4.6H-382.7z"/>
</svg>
