<?xml version="1.0" encoding="utf-8"?>
<!-- Generator: Adobe Illustrator 24.3.0, SVG Export Plug-In . SVG Version: 6.00 Build 0)  -->
<svg version="1.1" id="Layer_1" xmlns="http://www.w3.org/2000/svg" xmlns:xlink="http://www.w3.org/1999/xlink" x="0px" y="0px"
	 viewBox="0 0 25 25" style="enable-background:new 0 0 25 25;" xml:space="preserve">
<style type="text/css">
	.st0{fill:#243746;}
</style>
<g>
	<path class="st0" d="M12.4,18.7c-0.1,0-0.3,0-0.4-0.1l-4.8-4.8c-0.2-0.2-0.2-0.5,0-0.7c0.2-0.2,0.5-0.2,0.7,0l4.5,4.4l4.7-4.6
		c0.2-0.2,0.5-0.2,0.7,0c0.2,0.2,0.2,0.5,0,0.7l-5,4.9C12.7,18.6,12.5,18.7,12.4,18.7z"/>
</g>
<g>
	<path class="st0" d="M12.5,24.9c-6.8,0-12.4-5.6-12.4-12.4c0-6.8,5.6-12.4,12.4-12.4c6.8,0,12.4,5.6,12.4,12.4
		C24.9,19.3,19.3,24.9,12.5,24.9z M12.5,1.1C6.2,1.1,1.1,6.2,1.1,12.5c0,6.3,5.1,11.4,11.4,11.4c6.3,0,11.4-5.1,11.4-11.4
		C23.9,6.2,18.8,1.1,12.5,1.1z"/>
</g>
<g>
	<path class="st0" d="M12.4,18.1c-0.3,0-0.5-0.2-0.5-0.5V6.1c0-0.3,0.2-0.5,0.5-0.5s0.5,0.2,0.5,0.5v11.5
		C12.9,17.9,12.7,18.1,12.4,18.1z"/>
</g>
</svg>
