<?xml version="1.0" encoding="utf-8"?>
<!-- Generator: Adobe Illustrator 19.0.0, SVG Export Plug-In . SVG Version: 6.00 Build 0)  -->
<svg version="1.1" id="Layer_1" xmlns="http://www.w3.org/2000/svg" xmlns:xlink="http://www.w3.org/1999/xlink" x="0px" y="0px"
	 viewBox="-404 282.3 32 32" style="enable-background:new -404 282.3 32 32;" xml:space="preserve">
<g>
	<path id="path4463_1_" d="M-393.1,300.5c0.9-1.7,1.9-3.7,2.7-5.6l0,0l0.3-0.8c-1-4-1.7-7.2-1.1-9.2l0,0c0.2-0.5,0.8-0.9,1.4-0.9
		l0,0l0.4,0h0.1c0.9,0,1.3,1.1,1.4,1.6l0,0c0.1,0.8-0.3,2-0.3,2l0,0c0-0.5,0-1.3-0.3-2.1l0,0c-0.4-0.8-0.7-1.3-1.1-1.4l0,0
		c-0.2,0.1-0.3,0.3-0.4,0.8l0,0c-0.1,0.6-0.1,1.4-0.1,1.8l0,0c0,1.4,0.3,3.2,0.8,5.1l0,0c0.1-0.3,0.2-0.6,0.3-0.8l0,0
		c0.1-0.4,0.8-3.2,0.8-3.2l0,0c0,0-0.2,3.7-0.4,4.8l0,0c-0.1,0.2-0.1,0.5-0.2,0.7l0,0c0.9,2.5,2.3,4.7,4,6.3l0,0
		c0.7,0.6,1.5,1.1,2.3,1.6l0,0c1.8-0.3,3.4-0.4,4.7-0.4l0,0c1.8,0,3.1,0.3,3.7,0.8l0,0c0.3,0.3,0.4,0.6,0.4,0.9l0,0
		c0,0.1-0.1,0.5-0.1,0.5l0,0c0-0.1,0-0.6-1.4-1l0,0c-1.1-0.4-3.3-0.4-5.8-0.1l0,0c3,1.4,5.8,2.2,6.7,1.7l0,0
		c0.2-0.1,0.5-0.5,0.5-0.5l0,0c0,0-0.2,0.7-0.3,0.9l0,0c-0.1,0.2-0.4,0.4-0.7,0.5l0,0c-1.4,0.4-5.2-0.5-8.5-2.4l0,0
		c-3.6,0.5-7.7,1.5-10.9,2.6l0,0c-3.2,5.5-5.5,8.1-7.5,7.1l0,0l-0.7-0.4c-0.3-0.2-0.3-0.6-0.3-0.9l0,0c0.2-1.1,1.6-2.8,4.4-4.4l0,0
		c0.3-0.2,1.6-0.9,1.6-0.9l0,0c0,0-1,1-1.2,1.1l0,0c-2.2,1.8-3.8,4.1-3.8,5l0,0l0,0.1C-399.5,311.4-396.7,307.6-393.1,300.5
		 M-391.9,301.1c-0.6,1.1-1.2,2.2-1.7,3.2l0,0c3-1.3,6.3-2.1,9.4-2.7l0,0c-0.4-0.3-0.8-0.6-1.2-0.9l0,0c-1.7-1.4-3-3.2-3.9-5.1l0,0
		C-390,297.2-390.8,298.9-391.9,301.1"/>
</g>
</svg>
