<?xml version="1.0" encoding="utf-8"?>
<!-- Generator: Adobe Illustrator 19.0.0, SVG Export Plug-In . SVG Version: 6.00 Build 0)  -->
<svg version="1.1" id="Layer_1" xmlns="http://www.w3.org/2000/svg" xmlns:xlink="http://www.w3.org/1999/xlink" x="0px" y="0px"
	 viewBox="-404 282.3 32 32" style="enable-background:new -404 282.3 32 32;" xml:space="preserve">
<g>
	<g>
		<path d="M-381.9,305.2c-3.5,0-6.3-2.8-6.3-6.3c0-3.5,2.8-6.3,6.3-6.3c3.5,0,6.3,2.8,6.3,6.3C-375.6,302.4-378.5,305.2-381.9,305.2
			z M-381.9,294.1c-2.7,0-4.8,2.2-4.8,4.8c0,2.7,2.2,4.8,4.8,4.8c2.7,0,4.8-2.2,4.8-4.8C-377.1,296.3-379.3,294.1-381.9,294.1z"/>
	</g>
	<path d="M-393.8,288.8v-1.5h-6v1.5h-4.2v19.8h32v-19.8H-393.8z M-393,293.9h-7.5v-3h7.5V293.9z M-381.9,306.9c-4.4,0-8-3.6-8-8
		c0-4.4,3.6-8,8-8c4.4,0,8,3.6,8,8C-373.9,303.3-377.5,306.9-381.9,306.9z"/>
</g>
</svg>
