<?xml version="1.0" encoding="utf-8"?>
<!-- Generator: Adobe Illustrator 21.1.0, SVG Export Plug-In . SVG Version: 6.00 Build 0)  -->
<svg version="1.1" id="Layer_1" xmlns="http://www.w3.org/2000/svg" xmlns:xlink="http://www.w3.org/1999/xlink" x="0px" y="0px"
	 viewBox="0 0 50 50" style="enable-background:new 0 0 50 50;" xml:space="preserve">
<style type="text/css">
	.st0{fill:#FFFFFF;}
</style>
<g>
	<path class="st0" d="M45.1,48.7c-1,0-1.7-0.8-1.8-1.7L43.3,6.2c0-0.6-0.4-0.8-0.5-0.9c-0.2-0.1-0.6-0.3-1.1,0l-36,21.2
		c-0.8,0.5-1.9,0.2-2.4-0.6C2.9,25,3.1,24,4,23.5l36-21.2c1.4-0.8,3.1-0.9,4.6,0c1.4,0.8,2.3,2.3,2.3,4l0.1,40.7
		C46.9,47.9,46.1,48.7,45.1,48.7C45.1,48.7,45.1,48.7,45.1,48.7z"/>
</g>
</svg>
