<?xml version="1.0" encoding="utf-8"?>
<!-- Generator: Adobe Illustrator 21.1.0, SVG Export Plug-In . SVG Version: 6.00 Build 0)  -->
<svg version="1.1" id="Layer_1" xmlns="http://www.w3.org/2000/svg" xmlns:xlink="http://www.w3.org/1999/xlink" x="0px" y="0px"
	 viewBox="0 0 12.106 10.574" enable-background="new 0 0 12.106 10.574" xml:space="preserve">
<g>
	<g>
		<path fill="#66737E" d="M6.808,10.448c-0.161,0-0.323-0.062-0.445-0.185c-0.247-0.245-0.247-0.646-0.001-0.892l4.094-4.101
			L6.363,1.184C6.116,0.937,6.116,0.538,6.361,0.292c0.246-0.248,0.647-0.246,0.892-0.001l4.54,4.533
			c0.246,0.245,0.246,0.646,0,0.892l-4.539,4.548C7.131,10.387,6.969,10.448,6.808,10.448z"/>
	</g>
	<g>
		<path fill="#66737E" d="M11.348,5.909H0.754c-0.349,0-0.631-0.282-0.631-0.631s0.282-0.631,0.631-0.631h10.594
			c0.349,0,0.631,0.282,0.631,0.631S11.697,5.909,11.348,5.909z"/>
	</g>
</g>
</svg>
