<?xml version="1.0" encoding="utf-8"?>
<!-- Generator: Adobe Illustrator 21.1.0, SVG Export Plug-In . SVG Version: 6.00 Build 0)  -->
<svg version="1.1" id="Layer_1" xmlns="http://www.w3.org/2000/svg" xmlns:xlink="http://www.w3.org/1999/xlink" x="0px" y="0px"
	 viewBox="0 0 26 26" style="enable-background:new 0 0 26 26;" xml:space="preserve">
<style type="text/css">
	.st0{fill:#000000;}
</style>
<g>
	<g>
		<path class="st0" d="M13,2c6.1,0,11,4.9,11,11s-4.9,11-11,11S2,19.1,2,13S6.9,2,13,2 M13,0.5C6.1,0.5,0.5,6.1,0.5,13
			S6.1,25.5,13,25.5S25.5,19.9,25.5,13S19.9,0.5,13,0.5L13,0.5z"/>
	</g>
	<g>
		<g>
			<path class="st0" d="M13,20.6c-0.4,0-0.8-0.3-0.8-0.8V6.2c0-0.4,0.3-0.8,0.8-0.8s0.8,0.3,0.8,0.8v13.7
				C13.8,20.3,13.4,20.6,13,20.6z"/>
		</g>
		<g>
			<path class="st0" d="M19.8,13.8H6.2c-0.4,0-0.8-0.3-0.8-0.8s0.3-0.8,0.8-0.8h13.7c0.4,0,0.8,0.3,0.8,0.8S20.3,13.8,19.8,13.8z"/>
		</g>
	</g>
</g>
</svg>
