<svg width="181" height="162" viewBox="0 0 181 162" fill="none" xmlns="http://www.w3.org/2000/svg">
<path d="M2.26244 84.85C2.41327 84.85 2.41327 84.85 2.5641 84.85C3.61994 84.85 4.67577 84.0951 4.8266 82.8872C7.23994 64.3169 19.4574 50.8798 33.7866 50.8798C42.8366 50.8798 51.1324 56.315 56.8641 65.5247C51.5849 73.2246 47.9649 82.7363 46.6074 93.4557C46.4566 94.6636 47.3616 95.8714 48.5683 96.0224C49.7749 96.1733 50.9816 95.2675 51.1324 94.0596C54.2999 68.8462 70.8916 50.5778 90.4999 50.5778C110.108 50.5778 126.7 68.8462 130.018 94.2106C130.169 95.4185 131.074 96.1733 132.281 96.1733C132.432 96.1733 132.432 96.1733 132.582 96.1733C133.789 96.0224 134.694 94.8145 134.543 93.6067C133.186 82.8872 129.415 73.2246 124.136 65.5247C129.717 56.164 138.163 50.8798 147.062 50.8798C161.392 50.8798 173.609 64.3169 176.022 82.8872C176.173 84.0951 177.078 84.85 178.285 84.85C178.436 84.85 178.436 84.85 178.587 84.85C179.793 84.699 180.698 83.4911 180.547 82.2833C178.436 65.6757 169.084 52.6915 156.867 48.1622C162.598 44.8406 166.52 38.4995 166.52 31.4035C166.52 20.6841 157.772 11.9273 147.062 11.9273C136.353 11.9273 127.605 20.6841 127.605 31.4035C127.605 38.4995 131.527 44.8406 137.258 48.1622C131.074 50.5778 125.493 55.1072 121.27 61.5993C115.84 55.1072 109.203 50.2759 101.812 47.8602C110.108 43.6328 115.84 35.178 115.84 25.2134C115.84 11.3234 104.377 0 90.4999 0C76.6233 0 65.3108 11.3234 65.3108 25.3644C65.3108 35.178 71.0424 43.7838 79.3383 48.0112C71.9474 50.4268 65.1599 55.2582 59.8808 61.9012C55.6574 55.4091 50.0766 50.7288 43.7416 48.3131C49.4733 44.9916 53.3949 38.6505 53.3949 31.5545C53.3949 20.835 44.6466 12.0783 33.9374 12.0783C23.2283 12.0783 14.3291 20.6841 14.3291 31.4035C14.3291 38.4995 18.2508 44.8406 23.9824 48.1622C11.7649 52.8425 2.41327 65.6757 0.301603 82.2833C0.15077 83.6421 1.05577 84.699 2.26244 84.85ZM132.281 31.4035C132.281 23.0997 138.917 16.4567 147.213 16.4567C155.509 16.4567 162.146 23.0997 162.146 31.4035C162.146 39.7074 155.509 46.3504 147.213 46.3504C138.917 46.3504 132.281 39.7074 132.281 31.4035ZM69.8358 25.3644C69.8358 13.89 79.0366 4.52936 90.4999 4.52936C101.963 4.52936 111.315 13.89 111.315 25.3644C111.315 36.8388 101.963 46.0485 90.4999 46.0485C79.0366 46.0485 69.8358 36.6878 69.8358 25.3644ZM18.8541 31.4035C18.8541 23.0997 25.4908 16.4567 33.7866 16.4567C42.0824 16.4567 48.7191 23.0997 48.7191 31.4035C48.7191 39.7074 42.0824 46.3504 33.7866 46.3504C25.4908 46.3504 18.8541 39.7074 18.8541 31.4035Z" fill="#FF1243"/>
<path d="M180.094 112.328C179.038 111.573 177.681 111.875 176.927 112.781C157.017 140.712 124.739 157.32 90.4993 157.32C56.2602 157.32 23.9818 140.712 4.07182 112.781C3.31766 111.724 1.96016 111.573 0.904323 112.328C-0.15151 113.083 -0.302344 114.442 0.451823 115.499C21.2668 144.487 54.9027 161.849 90.4993 161.849C126.096 161.849 159.732 144.487 180.547 115.499C181.301 114.593 181.15 113.083 180.094 112.328Z" fill="#FF1243"/>
</svg>
