<svg width="162" height="162" viewBox="0 0 162 162" fill="none" xmlns="http://www.w3.org/2000/svg">
<path d="M81 0C36.315 0 0 36.315 0 81C0 125.685 36.315 162 81 162C125.685 162 162 125.685 162 81C162 36.315 125.685 0 81 0ZM81 4.05C105.435 4.05 127.305 15.525 141.345 33.345L140.805 55.35C140.67 58.59 139.32 61.56 137.43 62.775L127.845 68.85C124.875 70.74 123.93 74.385 125.28 77.76L129.33 87.885C129.735 88.83 129.735 89.775 129.33 90.72L111.375 126.09C111.105 126.495 110.7 126.63 110.295 126.495C110.025 126.36 109.755 126.225 109.755 125.82L102.6 90.585L102.465 90.045C102.06 88.29 101.655 85.86 100.44 83.97L95.445 77.895L95.31 77.76C93.69 76.14 92.205 74.79 89.505 73.98L70.47 67.365C68.85 66.825 67.635 65.475 68.175 63.585L70.47 56.295C70.74 55.35 71.55 54.81 72.495 54.81H77.085C80.46 54.81 82.755 52.785 82.89 49.41V39.69C82.62 35.505 79.11 32.13 74.925 32.13H74.79L63.045 33.075H62.775C59.67 33.615 56.835 36.18 56.025 39.015C56.025 39.15 52.515 52.11 51.57 55.35C51.3 56.43 50.22 56.43 49.95 56.43C49.815 56.43 48.87 56.295 48.735 55.35C48.6 52.245 47.25 40.5 47.25 39.96C46.98 38.205 45.9 36.855 44.415 36.315C42.66 35.775 40.77 36.45 39.42 38.07L27.405 51.705C26.46 52.785 25.785 52.92 24.165 51.975L12.96 44.955C26.055 20.655 51.57 4.05 81 4.05ZM4.05 82.62L7.83 85.455L8.1 85.59C9.99 86.535 12.285 87.345 14.985 85.86L16.74 85.05C17.82 84.51 18.765 84.51 20.115 85.05L42.93 98.55C43.2 98.685 43.605 98.955 43.74 99.36C43.875 99.765 43.605 100.44 42.66 101.385L37.26 107.46C35.91 108.54 35.1 108.675 34.155 108.27L31.455 107.325H31.32C29.16 106.785 26.865 107.595 25.515 109.35L15.93 121.77C8.64 110.43 4.455 97.065 4.05 82.62ZM81 157.95C55.08 157.95 32.13 145.125 18.225 125.415L28.62 111.915C29.025 111.51 29.565 111.24 30.105 111.375L32.805 112.32C35.37 113.13 37.665 112.59 39.96 110.565L45.63 104.085C47.25 102.195 47.925 100.44 47.52 98.685C47.385 97.74 46.71 96.255 44.82 95.04L22.005 81.54L21.87 81.405C19.305 80.19 17.01 80.19 14.85 81.405L13.095 82.35C12.285 82.755 11.61 82.89 10.125 82.08L4.05 77.625C4.455 67.23 7.02 57.375 11.205 48.465L22.005 55.35C25.92 57.78 28.755 56.16 30.375 54.405L42.39 40.77C42.795 40.365 43.065 40.365 43.065 40.23C43.065 40.23 43.065 40.365 43.2 40.5C43.2 40.635 44.55 52.65 44.82 55.755C45.09 58.185 46.98 60.21 49.68 60.48C52.38 60.75 54.81 59.13 55.62 56.565C56.565 53.19 60.075 40.635 60.21 40.23C60.615 38.88 62.1 37.53 63.72 37.26L75.195 36.315C77.22 36.315 78.84 38.07 78.975 39.96V49.41C78.975 50.085 78.705 50.895 77.22 50.895H72.63C69.795 50.895 67.365 52.785 66.825 55.35L64.53 62.505C63.315 66.285 65.475 70.065 69.39 71.415L88.425 78.03C90.045 78.57 91.125 79.245 92.475 80.73L97.2 86.4C97.875 87.615 98.28 89.64 98.55 90.99L105.84 126.9C106.245 128.79 107.595 130.275 109.485 130.68C109.89 130.815 110.16 130.815 110.565 130.815C112.05 130.815 113.67 130.14 114.75 128.79L133.11 92.88L133.245 92.61C133.92 90.585 133.92 88.56 133.11 86.67L129.06 76.545C128.52 75.33 128.52 73.575 130.005 72.63L139.59 66.555C143.37 64.125 144.72 59.4 144.855 55.755L145.26 39.015C153.225 51.165 157.95 65.61 157.95 81.27C157.95 123.39 123.39 157.95 81 157.95Z" fill="#FF1243"/>
</svg>
